{
  "asset": {"version": "2.0", "generator": "vr-model-viewer-samples"},
  "scene": 0,
  "scenes": [{"nodes": [0]}],
  "nodes": [{"mesh": 0, "name": "triangle"}],
  "meshes": [{"primitives": [{"attributes": {"POSITION": 0}, "indices": 1}]}],
  "buffers": [{"byteLength": 42, "uri": "data:application/octet-stream;base64,"}],
  "bufferViews": [
    {"buffer": 0, "byteOffset": 0, "byteLength": 36, "target": 34962},
    {"buffer": 0, "byteOffset": 36, "byteLength": 6, "target": 34963}
  ],
  "accessors": [
    {"bufferView": 0, "componentType": 5126, "count": 3, "type": "VEC3", "min": [0.2, 0.0, 0.0], "max": [1.2, 1.0, 0.0]},
    {"bufferView": 1, "componentType": 5123, "count": 3, "type": "SCALAR"}
  ]
}
